<svg width="18" height="18" viewBox="0 0 18 18" fill="none" xmlns="http://www.w3.org/2000/svg">
<path fill-rule="evenodd" clip-rule="evenodd" d="M18 9C18 4.03695 13.9642 0 9.00348 0C4.04279 0 0.0069512 4.03695 0.0069512 9C0.0069512 10.4333 0.353317 11.8539 1.01096 13.1274L0.048785 16.573C-0.149724 17.3431 0.266585 17.9858 1.13332 18C1.81331 18.0111 2.2945 17.9062 2.73802 17.7761L3.3952 17.5736C3.84134 17.4412 4.33038 17.3292 5.02346 17.3284C5.69571 17.3276 6.15992 17.4414 6.60901 17.5754L6.99474 17.6931C7.51611 17.8509 8.0897 18 9.00348 18C13.9642 18 18 13.9626 18 9ZM4.09 6.87093C4.22631 6.6373 4.47779 6.4952 4.74817 6.49902H13.2449C13.5153 6.4952 13.7667 6.6373 13.903 6.87093C14.0393 7.10455 14.0393 7.3935 13.903 7.62712C13.7667 7.86074 13.5153 8.00285 13.2449 7.99902H4.74817C4.47779 8.00285 4.22631 7.86074 4.09 7.62712C3.9537 7.3935 3.9537 7.10455 4.09 6.87093ZM4.74817 9.99902C4.47779 9.9952 4.22631 10.1373 4.09 10.3709C3.9537 10.6046 3.9537 10.8935 4.09 11.1271C4.22631 11.3607 4.47779 11.5028 4.74817 11.499H11.2457C11.516 11.5028 11.7675 11.3607 11.9038 11.1271C12.0401 10.8935 12.0401 10.6046 11.9038 10.3709C11.7675 10.1373 11.516 9.9952 11.2457 9.99902H4.74817ZM1.50637 9C1.50637 4.86554 4.87073 1.5 9.00348 1.5C13.1362 1.5 16.5006 4.86554 16.5006 9C16.5006 13.1342 13.1361 16.5 9.00348 16.5C8.35986 16.5 7.99949 16.4325 7.33917 16.2301L6.82677 16.0776C6.20013 15.904 5.69911 15.8276 5.02178 15.8284C4.13065 15.8294 3.57175 15.9436 2.65005 16.2338L2.21463 16.3647C2.04429 16.4116 1.89896 16.4444 1.75715 16.466L1.63032 16.483L2.61372 12.9629L2.34312 12.4389L2.20003 12.1464C1.74469 11.1615 1.50637 10.0839 1.50637 9Z" fill="#090710"/>
</svg>
