<svg width="24" height="24" viewBox="0 0 24 24" fill="none" xmlns="http://www.w3.org/2000/svg">
<path fill-rule="evenodd" clip-rule="evenodd" d="M5.73842 9.1958C4.34043 9.1958 3.19495 10.3417 3.19495 11.7393C3.19495 13.137 4.34071 14.2828 5.73842 14.2828C7.13614 14.2828 8.2819 13.137 8.2819 11.7393C8.2819 10.3416 7.13614 9.1958 5.73842 9.1958ZM11.9993 9.1958C10.6013 9.1958 9.45582 10.3417 9.45582 11.7393C9.45582 13.137 10.6016 14.2828 11.9993 14.2828C13.397 14.2828 14.5428 13.137 14.5428 11.7393C14.5428 10.3416 13.397 9.1958 11.9993 9.1958ZM18.2602 9.1958C16.8622 9.1958 15.7167 10.3417 15.7167 11.7393C15.7167 13.137 16.8624 14.2828 18.2602 14.2828C19.6582 14.2828 20.8036 13.1369 20.8036 11.7393C20.8036 10.3416 19.6579 9.1958 18.2602 9.1958ZM5.73842 10.3697C6.50149 10.3697 7.10799 10.9762 7.10799 11.7393C7.10799 12.5023 6.50149 13.1088 5.73842 13.1088C4.97536 13.1088 4.36886 12.5023 4.36886 11.7393C4.36886 10.9761 4.97485 10.3697 5.73842 10.3697ZM11.9993 10.3697C12.7624 10.3697 13.3689 10.9762 13.3689 11.7393C13.3689 12.5023 12.7624 13.1088 11.9993 13.1088C11.2362 13.1088 10.6297 12.5023 10.6297 11.7393C10.6297 10.9761 11.2357 10.3697 11.9993 10.3697ZM18.2602 10.3697C19.0232 10.3697 19.6297 10.9762 19.6297 11.7393C19.6297 12.5025 19.0237 13.1088 18.2602 13.1088C17.4971 13.1088 16.8906 12.5023 16.8906 11.7393C16.8906 10.9761 17.4966 10.3697 18.2602 10.3697Z" fill="#090710"/>
</svg>
