<svg width="24" height="24" viewBox="0 0 24 24" fill="none" xmlns="http://www.w3.org/2000/svg">
<path fill-rule="evenodd" clip-rule="evenodd" d="M21 11.9903C20.9974 11.8147 20.9265 11.6469 20.8022 11.5228L18.1022 8.82275C17.9329 8.64642 17.6815 8.57539 17.445 8.63706C17.2084 8.69873 17.0237 8.88345 16.9621 9.12C16.9004 9.35654 16.9714 9.60794 17.1477 9.77725L18.6946 11.3241L9.52587 11.3162C9.28246 11.3125 9.05588 11.4401 8.9329 11.6502C8.80991 11.8603 8.80957 12.1203 8.93201 12.3307C9.05445 12.5411 9.28069 12.6693 9.52411 12.6662L18.6964 12.6741L17.1477 14.2228C16.9714 14.3921 16.9004 14.6435 16.9621 14.88C17.0237 15.1165 17.2084 15.3013 17.445 15.3629C17.6815 15.4246 17.9329 15.3536 18.1022 15.1772L20.8022 12.4772C20.9312 12.3483 21.0026 12.1727 21 11.9903ZM19.2061 6.8373C19.204 6.68497 19.1504 6.53784 19.0541 6.41982C17.407 4.3396 14.857 3 12 3C7.03752 3 2.99999 7.03753 2.99999 12C2.99999 16.9625 7.03752 21 12 21C14.857 21 17.407 19.6604 19.0541 17.5802C19.205 17.3912 19.2433 17.136 19.1546 16.9111C19.0658 16.6862 18.8635 16.5259 18.6243 16.4909C18.385 16.4559 18.1453 16.5516 17.9959 16.7417C16.5938 18.5126 14.4359 19.65 12 19.65C7.76716 19.65 4.34999 16.2328 4.34999 12C4.34999 7.76717 7.76716 4.35 12 4.35C14.4359 4.35 16.5938 5.48742 17.9959 7.2583C18.1731 7.48894 18.4782 7.5801 18.7529 7.48453C19.0277 7.38896 19.2103 7.12816 19.2061 6.8373Z" fill="#090710"/>
</svg>
